# xmcd
#
# Track frame offsets: 
#        150
#        17240
#        51860
#        81360
#
# Disc length: 1535 seconds
#
# Revision: 0
# Processed by: cddbd v1.5.2PL0 Copyright (c) Steve Scherf et al.
# Submitted via: ExactAudioCopy v0.95b4
#
DISCID=2c05fd04
DTITLE=Youniverse - I call it revolution
DYEAR=2002
DGENRE=
TTITLE0=edit
TTITLE1=original club mix
TTITLE2=master blaster remix
TTITLE3=cj stone remix
EXTD=
EXTT0=
EXTT1=
EXTT2=
EXTT3=
PLAYORDER=
